<svg width="512" height="512" xmlns="http://www.w3.org/2000/svg">
 <g id="Layer_1">
  <title>Layer 1</title>
  <rect stroke="null" fill="#22c55e" stroke-width="50" x="40.94417" y="389.52653" width="331.47293" height="108" id="svg_5"/>
  <rect stroke="null" fill="#22c55e" stroke-width="50" x="12.57471" y="31.18585" width="115.37827" height="486.29067" id="svg_4"/>
  <path stroke="null" id="svg_1" d="m137,256l0,0c0,-65.72186 53.27812,-118.99997 119,-118.99997l0,0c31.56075,0 61.82888,12.53745 84.14569,34.85428c22.31684,22.31683 34.85431,52.58493 34.85431,84.14569l0,0c0,65.72185 -53.27812,118.99997 -119,118.99997l0,0c-65.72187,0 -119,-53.27812 -119,-118.99997zm59.5,0l0,0c0,32.86092 26.63908,59.49998 59.5,59.49998c32.86095,0 59.5,-26.63906 59.5,-59.49998c0,-32.86092 -26.63907,-59.49998 -59.5,-59.49998l0,0c-32.86092,0 -59.5,26.63907 -59.5,59.49998z" stroke-width="50" fill="#22c55e"/>
  <rect stroke="null" id="svg_2" height="100" width="269.07691" y="13" x="261.92309" stroke-width="10" fill="#22c55e"/>
  <rect stroke="null" id="svg_3" height="429.99998" width="110" y="67.00002" x="387" stroke-width="10" fill="#22c55e"/>
 </g>

</svg>